***************************************************************

[IMG]http://www.torrentforce.org/imghost/3/greyshadow_sig.png[/IMG]

***************************************************************

[IMG]http://i1265.photobucket.com/albums/jj515/screensimagestore/alexander.jpg[/IMG]

***************************************************************

FILM TITLE: Alexander (2004) (Revisited-The Final Cut)

***************************************************************

Genre: Action | Adventure | Biography    

Rated R for violence and some sexuality/nudity

Release: 3 January 2005 (Poland) 

Director: Oliver Stone

Writer: Oliver Stone, Christopher Kyle

Stars: Colin Farrell, Anthony Hopkins and Rosario Dawson

Country: Germany | USA | Netherlands | France | UK | Italy 

Language:  English

Plot:
Alexander, the King of Macedonia and one of the greatest military 
leaders in the history of warfare, conquers much of the known world.

IMDB Rating: 5.4/10 from 76,908 users   Metascore: 39/100
 
http://www.imdb.com/title/tt0346491/

****************************************************************

[IMG]http://i1265.photobucket.com/albums/jj515/screensimagestore/alexanderrevisited720px264megui.png[/IMG]
[IMG]http://i1265.photobucket.com/albums/jj515/screensimagestore/alexander720px2641.png[/IMG]
[IMG]http://i1265.photobucket.com/albums/jj515/screensimagestore/alexander720px2642.png[/IMG]

****************************************************************

General
Complete name                    : Alexander Revisited 2004 720p BDRip x264 ac3 (mp4) [GREYSHADOW].mp4
Format                           : MPEG-4
Format profile                   : Base Media
Codec ID                         : isom
File size                        : 3.78 GiB
Duration                         : 3h 33mn
Overall bit rate                 : 2 535 Kbps
Encoded date                     : UTC 2012-02-04 16:29:04
Tagged date                      : UTC 2012-02-04 16:29:04

Video
ID                               : 1
Format                           : AVC
Format/Info                      : Advanced Video Codec
Format profile                   : High@L4.1
Format settings, CABAC           : Yes
Format settings, ReFrames        : 12 frames
Codec ID                         : avc1
Codec ID/Info                    : Advanced Video Coding
Duration                         : 3h 33mn
Bit rate                         : 2 149 Kbps
Maximum bit rate                 : 15.3 Mbps
Width                            : 1 280 pixels
Height                           : 528 pixels
Display aspect ratio             : 2.40:1
Frame rate mode                  : Constant
Frame rate                       : 23.976 fps
Color space                      : YUV
Chroma subsampling               : 4:2:0
Bit depth                        : 8 bits
Scan type                        : Progressive
Bits/(Pixel*Frame)               : 0.133
Stream size                      : 3.21 GiB (85%)
Title                            : AVC MPEG4 Video
Writing library                  : x264 core 120 r2146 bcd41db
Encoded date                     : UTC 2012-02-03 20:35:33
Tagged date                      : UTC 2012-02-04 16:29:24
Color primaries                  : BT.709-5, BT.1361, IEC 61966-2-4, SMPTE RP177
Transfer characteristics         : BT.709-5, BT.1361
Matrix coefficients              : BT.709-5, BT.1361, IEC 61966-2-4 709, SMPTE RP177

Audio
ID                               : 2
Format                           : AC-3
Format/Info                      : Audio Coding 3
Mode extension                   : CM (complete main)
Codec ID                         : ac-3
Duration                         : 3h 33mn
Bit rate mode                    : Constant
Bit rate                         : 384 Kbps
Channel(s)                       : 6 channels
Channel positions                : Front: L C R, Side: L R, LFE
Sampling rate                    : 48.0 KHz
Bit depth                        : 16 bits
Compression mode                 : Lossy
Stream size                      : 587 MiB (15%)
Title                            : AC3 5.1 384 kbps Audio
Language                         : English
Encoded date                     : UTC 2012-02-04 16:29:18
Tagged date                      : UTC 2012-02-04 16:29:24

****************************************************************

Video Source: Alexander Revisited The Final Cut 2004 1080p Blu-Ray AVC DTS-HD 5.1 Remux - ReMuXmE 

Thanks: PaLmeTTo

****************************************************************

I provide a small sample, so please download this to check your 
compatibility first if you are unsure.

****************************************************************

Hash: 0DC0870471DD19BC8C4456C2EE66CD2174B98744

Trackers:
.udp://tracker.1337x.org:80/announce

****************************************************************